# xmcd
#
# Track frame offsets: 
#        150
#        17278
#        32086
#        51316
#        63560
#        81729
#        99387
#        116038
#        132741
#        153055
#
# Disc length: 2301 seconds
#
# Revision: 4
# Processed by: cddbd v1.5.2PL0 Copyright (c) Steve Scherf et al.
# Submitted via: ExactAudioCopyFreeDBPlugin 1.0
#
DISCID=8408fb0a
DTITLE=otros aires - dos
DYEAR=2007
DGENRE=Tango
TTITLE0=allerding otros aires
TTITLE1=otro puente alsina
TTITLE2=otra noche en "la viruta"
TTITLE3=los vino'
TTITLE4=niebla del riachuelo
TTITLE5=un baile a beneficio
TTITLE6=la yumba
TTITLE7=junto a las piedras
TTITLE8=otra esquina
TTITLE9=a veces
EXTD=
EXTT0=
EXTT1=
EXTT2=
EXTT3=
EXTT4=
EXTT5=
EXTT6=
EXTT7=
EXTT8=
EXTT9=
PLAYORDER=
